Coordinates
version=1
nRows=26
nColumns=22
inDegrees=yes

Units are S.I. units (second, meters, Newtons, ...)
If the header above contains a line with 'inDegrees', this indicates whether rotational values are in degrees (yes) or radians (no).

endheader
time	pelvis_tilt	pelvis_list	pelvis_rotation	pelvis_tx	pelvis_ty	pelvis_tz	hip_flexion_r	hip_adduction_r	hip_rotation_r	knee_angle_r	ankle_angle_r	subtalar_angle_r	hip_flexion_l	hip_adduction_l	hip_rotation_l	knee_angle_l	ankle_angle_l	subtalar_angle_l	lumbar_extension	lumbar_bending	lumbar_rotation
      1.40000000	     -8.18319458	      1.61443591	      5.22968974	     -0.97107558	      0.87198071	     -0.62671537	     27.18406750	     -8.61542558	      9.56958473	    -48.38898936	     10.05468729	      7.67613710	      2.59997792	      4.38594298	     -3.81010759	     -8.89793043	     19.02825326	      5.13271602	      0.51036657	     -4.38088145	     12.95914021
      1.41000000	     -7.80928415	      1.59568033	      5.64520658	     -0.96910261	      0.87212981	     -0.62904787	     28.25813048	     -8.38725532	      9.75782988	    -51.00355952	      8.90186843	      6.61014334	      1.79595125	      4.45970333	     -3.47732853	     -8.43963536	     19.06696105	      5.25618345	     -0.02008150	     -4.36756334	     12.50945730
      1.42000000	     -7.45866904	      1.55628095	      6.11014294	     -0.96691470	      0.87228417	     -0.63141121	     29.28844477	     -8.15602999	      9.80227926	    -53.41842275	      8.03853982	      5.60916934	      1.00045725	      4.50495832	     -3.05807686	     -7.96564185	     19.05782635	      5.29866485	     -0.50847076	     -4.32845991	     12.01027328
      1.43000000	     -7.11606306	      1.45793873	      6.62035854	     -0.96460137	      0.87250042	     -0.63374377	     30.23848541	     -7.85994389	      9.72056652	    -55.56699373	      7.46044622	      4.31670242	      0.28098801	      4.46910739	     -2.63900736	     -7.61722724	     19.04317488	      5.25325227	     -0.98480502	     -4.21786956	     11.43411882
      1.44000000	     -6.81176096	      1.32821126	      7.16851559	     -0.96210310	      0.87270521	     -0.63605020	     31.13871007	     -7.55032476	      9.49385554	    -57.43473182	      7.23530917	      3.08489898	     -0.35956400	      4.38786675	     -2.17368522	     -7.35009441	     19.03856927	      5.15068118	     -1.40175183	     -4.07587653	     10.84052671
      1.45000000	     -6.54656557	      1.15910445	      7.74245805	     -0.95950618	      0.87292739	     -0.63830782	     31.98240822	     -7.20380139	      9.16119920	    -58.97078592	      7.27426765	      1.93292720	     -0.89411483	      4.25423111	     -1.69135025	     -7.19525924	     19.03375196	      4.98935630	     -1.77217783	     -3.88963546	     10.22369116
      1.46000000	     -6.32631864	      0.94969244	      8.33490883	     -0.95677349	      0.87314666	     -0.64050751	     32.76990976	     -6.82737410	      8.72169707	    -60.14911445	      7.49404202	      1.03750345	     -1.32384056	      4.06914444	     -1.17793552	     -7.14331565	     19.05849286	      4.79934575	     -2.07905604	     -3.66377424	      9.60067617
      1.47000000	     -6.14787132	      0.69282819	      8.92267744	     -0.95394424	      0.87337250	     -0.64260425	     33.49095809	     -6.38960641	      8.22981832	    -60.93559000	      7.84136618	      0.45500012	     -1.64546761	      3.82746530	     -0.65222024	     -7.19553088	     19.10781801	      4.58611503	     -2.33219675	     -3.38871072	      8.99329732
      1.48000000	     -6.00522744	      0.39345234	      9.49864840	     -0.95099556	      0.87360370	     -0.64460227	     34.14577379	     -5.90855271	      7.68031345	    -61.32875206	      8.16879776	      0.34624756	     -1.86868043	      3.53573606	     -0.14973410	     -7.34769151	     19.17718638	      4.44847283	     -2.53336193	     -3.07284005	      8.40981508
      1.49000000	     -5.87909927	      0.04169545	     10.03601487	     -0.94789670	      0.87384755	     -0.64646840	     34.71429363	     -5.35240464	      7.10480297	    -61.32203665	      8.42613062	      0.39866377	     -2.03695662	      3.18373290	      0.33303163	     -7.55944501	     19.28693894	      4.23440524	     -2.69973602	     -2.70149343	      7.89061572
      1.50000000	     -5.75841132	     -0.35610097	     10.53852861	     -0.94465683	      0.87410293	     -0.64822723	     35.18815400	     -4.72837890	      6.52680845	    -60.92647464	      8.57219569	      0.70447933	     -2.16758248	      2.77820063	      0.79715438	     -7.82120872	     19.42794321	      3.97759595	     -2.84761881	     -2.27717027	      7.41592505
      1.51000000	     -5.61571515	     -0.77617210	     10.98125778	     -0.94122446	      0.87439063	     -0.64986724	     35.53780041	     -4.04472784	      6.00007759	    -60.16031705	      8.64901966	      1.52138599	     -2.32249124	      2.34130358	      1.21699803	     -8.08852171	     19.55168716	      3.58366685	     -3.00786757	     -1.82220250	      7.02694568
      1.52000000	     -5.48015838	     -1.22682941	     11.38906553	     -0.93763060	      0.87463091	     -0.65140762	     35.80628926	     -3.30707160	      5.50927176	    -59.05359818	      8.59993255	      2.29864174	     -2.46130956	      1.86623903	      1.61322065	     -8.37201369	     19.72012784	      3.31976482	     -3.14990776	     -1.33298294	      6.68619480
      1.53000000	     -5.33393458	     -1.68537826	     11.74189779	     -0.93381969	      0.87482738	     -0.65284517	     35.97623092	     -2.52784452	      5.09691311	    -57.63504239	      8.46237039	      3.14333060	     -2.63962983	      1.37494899	      1.96592920	     -8.62217396	     19.90664604	      3.05258332	     -3.29253756	     -0.82895616	      6.38473909
      1.54000000	     -5.17736199	     -2.13825506	     12.05307598	     -0.92982499	      0.87495830	     -0.65420450	     36.05412128	     -1.73805484	      4.75227869	    -55.93716177	      8.27717223	      3.95006922	     -2.84171957	      0.88228243	      2.27844185	     -8.87176873	     20.10229855	      2.80068954	     -3.44486002	     -0.32761118	      6.15544243
      1.55000000	     -5.02077660	     -2.56991723	     12.32808373	     -0.92565048	      0.87498090	     -0.65549925	     36.05674558	     -0.96024980	      4.48889064	    -53.99606831	      8.06834392	      4.64368593	     -3.06615678	      0.40561583	      2.54189181	     -9.11011750	     20.33110803	      2.57634531	     -3.60007254	      0.15513163	      5.95060215
      1.56000000	     -4.89817746	     -2.97420867	     12.57718721	     -0.92134206	      0.87481718	     -0.65674334	     36.03544304	     -0.22286975	      4.28847827	    -51.85399600	      7.83055227	      5.07919677	     -3.25624086	     -0.03971562	      2.76484341	     -9.37783632	     20.62213545	      2.40189956	     -3.72603064	      0.60427785	      5.77273438
      1.57000000	     -4.76404252	     -3.32430764	     12.80073650	     -0.91686648	      0.87454669	     -0.65799030	     35.92842633	      0.44735545	      4.16269118	    -49.52721701	      7.64523289	      5.50997917	     -3.50678443	     -0.43320747	      2.96836806	     -9.59964773	     20.88322403	      2.23947084	     -3.87935033	      1.00784696	      5.61906296
      1.58000000	     -4.66652293	     -3.61506549	     13.01718438	     -0.91225064	      0.87407598	     -0.65922362	     35.80088136	      1.02851244	      4.09187174	    -47.05947578	      7.48257603	      5.79093478	     -3.74752824	     -0.76115040	      3.15221658	     -9.81003851	     21.15581802	      2.11202414	     -4.00757640	      1.33734971	      5.46635912
      1.59000000	     -4.57627073	     -3.85116607	     13.23203794	     -0.90750483	      0.87345372	     -0.66051542	     35.62171366	      1.51517073	      4.04324073	    -44.46840605	      7.34272240	      5.94803406	     -4.00911363	     -1.03031337	      3.33251448	    -10.00943310	     21.43271217	      2.01494215	     -4.14552786	      1.62231238	      5.30747424
      1.60000000	     -4.52956923	     -4.03377452	     13.45699965	     -0.90264902	      0.87262248	     -0.66185725	     35.43918194	      1.90066004	      4.00957863	    -41.78495592	      7.18053607	      5.97122447	     -4.23998429	     -1.23443729	      3.50904715	    -10.21805785	     21.74449866	      1.94675992	     -4.25142066	      1.84745956	      5.11588887
      1.61000000	     -4.48512324	     -4.16785567	     13.69638441	     -0.89764447	      0.87166190	     -0.66326002	     35.20561106	      2.19462443	      3.95437583	    -39.02278158	      7.01373845	      5.91907590	     -4.49707947	     -1.39097479	      3.69362921	    -10.41277412	     22.04886181	      1.89862515	     -4.36816323	      2.02968787	      4.90833853
      1.62000000	     -4.47794795	     -4.26090133	     13.95149092	     -0.89251187	      0.87052458	     -0.66471169	     34.96814861	      2.40271452	      3.87475670	    -36.20908994	      6.80177275	      5.85466240	     -4.73043399	     -1.49843581	      3.88747630	    -10.61253554	     22.36518079	      1.85706068	     -4.45446246	      2.16510234	      4.67190859
      1.63000000	     -4.48732286	     -4.33127378	     14.22548356	     -0.88724356	      0.86924537	     -0.66623362	     34.70970561	      2.54387866	      3.73747857	    -33.35729334	      6.53758075	      5.83441374	     -4.95829844	     -1.58190775	      4.09225617	    -10.82004679	     22.70609663	      1.81385940	     -4.52788533	      2.28650094	      4.41069230
      1.64000000	     -4.51701361	     -4.37613100	     14.51334630	     -0.88183297	      0.86783384	     -0.66779258	     34.43646078	      2.62902395	      3.54948546	    -30.48954355	      6.21821600	      5.89436020	     -5.18244111	     -1.63849669	      4.30770341	    -11.02525963	     23.05736961	      1.77288564	     -4.58552478	      2.38231671	      4.13220834
      1.65000000	     -4.55809153	     -4.40525618	     14.81353014	     -0.87627588	      0.86630956	     -0.66937727	     34.14416724	      2.67676589	      3.30663453	    -27.62603261	      5.85449723	      6.06998584	     -5.41099997	     -1.68325790	      4.52877082	    -11.22676484	     23.42710745	      1.73843443	     -4.63492925	      2.46600579	      3.84096336
